<svg xmlns="http://www.w3.org/2000/svg" xmlns:xlink="http://www.w3.org/1999/xlink" fill="none" version="1.1" width="387" height="134" viewBox="0 0 387 134"><g><g></g><g><path d="M214.571,133.79004930419921L220.372,88.44084930419922L216.062,88.44084930419922L210.262,133.79004930419921L214.571,133.79004930419921ZM365.527,93.57084930419921L366.183,88.44084930419922L360.079,88.44084930419922L358.136,103.62564930419921L343.721,103.62564930419921L341.339,122.24754930419923L379.352,122.24754930419923L381.734,103.62564930419921L364.241,103.62564930419921L364.897,98.49564930419922L386.238,98.49564930419922L386.868,93.57084930419921L365.527,93.57084930419921ZM136.369,104.13864930419922L138.371,88.49214930419922L132.009,88.49214930419922L130.008,104.13864930419922L117.491,104.13864930419922L116.815,109.42254930419922L129.332,109.42254930419922L126.215,133.79004930419921L132.576,133.79004930419921L135.693,109.42254930419922L148.159,109.42254930419922L148.835,104.13864930419922L136.369,104.13864930419922ZM31.9438,101.16324930419921L33.5515,88.59474930419921L27.5494,88.59474930419921L22.536,127.78794930419922L14.0715,127.78794930419922L13.376,133.2257493041992L42.4631,133.2257493041992L43.1586,127.78794930419922L28.5381,127.78794930419922L31.2548,106.54974930419922L43.9772,106.54974930419922L44.6662,101.16324930419921L31.9438,101.16324930419921ZM11.0862,98.18784930419922L12.3068,88.64604930419922L6.25338,88.64604930419922L5.03284,98.18784930419922L11.0862,98.18784930419922ZM62.181,98.18784930419922L63.4016,88.64604930419922L57.3482,88.64604930419922L56.1276,98.18784930419922L62.181,98.18784930419922ZM93.258,93.86719930419922L93.9251,88.64604930419922L74.2259,88.64604930419922L73.6353,93.26304930419921C73.3772,95.28084930419922,73.0839,96.90534930419922,72.7554,98.13654930419922C72.4269,99.36774930419922,72.0159,100.30824930419922,71.5224,100.95804930419922C71.0289,101.60784930419922,70.427,102.03534930419922,69.7167,102.24054930419922C69.0854,102.42294930419922,68.3293,102.52424930419922,67.4485,102.54454930419922L67.1124,102.54834930419922L66.4365,107.83224930419922C68.5569,107.83224930419922,70.3402,107.59284930419922,71.7866,107.11404930419923Q73.9561,106.39584930419922,75.3493,104.72864930419922C76.278,103.61714930419922,77.0219,102.14654930419923,77.5808,100.31674930419922C78.1049,98.60144930419922,78.537,96.48783930419921,78.8774,93.97593930419922L78.9442,93.46824930419922L87.973,93.46824930419922Q87.4546,97.52094930419922,87.4114,100.26544930419922Q87.3681,103.01004930419921,88.2802,104.70294930419922C88.8882,105.83154930419921,89.8969,106.63524930419922,91.3062,107.11404930419923Q93.4203,107.83224930419922,97.2165,107.83224930419922L97.9252,102.29184930419922Q95.7706,102.29184930419922,94.6721,101.85584930419921C93.9398,101.56514930419922,93.4389,101.06924930419922,93.1695,100.36804930419922Q92.7654,99.31644930419922,92.8793,97.62354930419922C92.9484,96.59754930419922,93.0746,95.34542930419921,93.258,93.86719930419922ZM115.009,88.64604930419922L108.956,88.64604930419922L107.775,97.88004930419922L113.828,97.88004930419922L115.009,88.64604930419922ZM206.488,88.69734930419922L202.78,117.68184930419922L202.693,118.34724930419922C202.399,120.54484930419922,202.068,122.53744930419921,201.7,124.32514930419921Q201.091,127.27494930419923,200.034,129.32694930419922Q198.976,131.3789493041992,197.322,132.48184930419922C196.219,133.2172493041992,194.812,133.58484930419922,193.102,133.58484930419922L193.831,127.89054930419923L194.023,127.88434930419922C194.591,127.84744930419922,195.083,127.64434930419921,195.5,127.27494930419923C195.963,126.86454930419922,196.372,126.20624930419922,196.727,125.29994930419922C197.082,124.39364930419922,197.396,123.21374930419921,197.667,121.76024930419922Q198.074,119.57994930419922,198.481,116.39934930419922L202.025,88.69734930419922L206.488,88.69734930419922ZM244.203,94.23774930419921L244.82,89.41555030419921L221.786,89.41555030419921L221.169,94.23774930419921L230.198,94.23774930419921L229.376,99.05994930419922L221.322,99.05994930419922L218.316,122.55534930419921L222.779,122.55534930419921L225.227,103.42044930419922L237.796,103.42044930419922L235.348,122.55534930419921L239.811,122.55534930419921L242.816,99.05994930419922L234.608,99.05994930419922L235.43,94.23774930419921L244.203,94.23774930419921ZM207.688,132.25104930419923L213.128,89.72334930419922L209.127,89.72334930419922L203.687,132.25104930419923L207.688,132.25104930419923ZM180.636,89.87724930419922L177.685,94.49424930419922L176.714,102.08664930419921L169.122,102.08664930419921L170.093,94.49424930419922L170.195,94.49424930419922L174.787,89.87724930419922L180.636,89.87724930419922ZM191.409,89.87724930419922L188.458,94.49424930419922L187.487,102.08664930419921L179.895,102.08664930419921L180.866,94.49424930419922L180.968,94.49424930419922L185.56,89.87724930419922L191.409,89.87724930419922ZM261.895,89.87724930419922L260.924,97.46964930419922L260.821,97.46964930419922L256.229,102.08664930419921L250.381,102.08664930419921L253.331,97.46964930419922L254.302,89.87724930419922L261.895,89.87724930419922ZM272.668,89.87724930419922L271.697,97.46964930419922L271.594,97.46964930419922L267.002,102.08664930419921L261.154,102.08664930419921L264.104,97.46964930419922L265.075,89.87724930419922L272.668,89.87724930419922ZM11.8778,101.62494930419922L9.01017,124.04304930419923L8.97864,124.30674930419923C8.83561,125.59724930419921,8.91172,126.46694930419922,9.20699,126.91584930419921C9.52195,127.39464930419922,9.98722,127.63404930419921,10.6028,127.63404930419921L12.6548,127.63404930419921L12.0052,132.71274930419924L9.69668,132.71274930419924L9.33928,132.70894930419922Q7.22875,132.66344930419922,5.93121,132.0715493041992C4.99409,131.64404930419923,4.2915,131.05404930419922,3.82345,130.3016493041992C3.35539,129.54924930419924,3.09512,128.64294930419922,3.04264,127.58274930419921C2.99015,126.52254930419922,3.04484,125.35974930419923,3.20671,124.09434930419923L5.4378,106.65234930419922L0,106.65234930419922L0.64308,101.62494930419922L11.8778,101.62494930419922ZM62.1518,101.62494930419922L59.2842,124.04304930419923L59.2517,124.30674930419923C59.0997,125.59724930419921,59.0992,126.46694930419922,59.2501,126.91584930419921C59.4112,127.39464930419922,59.8166,127.63404930419921,60.4664,127.63404930419921L62.6723,127.63404930419921L62.0227,132.71274930419924L59.3038,132.71274930419924L58.9721,132.7094493041992C57.558,132.6811493041992,56.4476,132.46844930419923,55.6409,132.0715493041992C54.7722,131.64404930419923,54.1466,131.05404930419922,53.764,130.3016493041992C53.3814,129.54924930419924,53.1981,128.64294930419922,53.214,127.58274930419921C53.23,126.52254930419922,53.3188,125.35974930419923,53.4807,124.09434930419923L55.7118,106.65234930419922L50.9922,106.65234930419922L51.6353,101.62494930419922L62.1518,101.62494930419922ZM113.965,101.62494930419922L111.097,124.04304930419923L111.066,124.30674930419923C110.923,125.59724930419921,110.999,126.46694930419922,111.294,126.91584930419921C111.609,127.39464930419922,112.091,127.63404930419921,112.741,127.63404930419921L115.357,127.63404930419921L114.708,132.71274930419924L111.63,132.71274930419924L111.298,132.7094493041992C109.88,132.6811493041992,108.744,132.46844930419923,107.89,132.0715493041992C106.97,131.64404930419923,106.293,131.05404930419922,105.859,130.3016493041992C105.425,129.54924930419924,105.191,128.64294930419922,105.155,127.58274930419921C105.12,126.52254930419922,105.183,125.35974930419923,105.345,124.09434930419923L107.576,106.65234930419922L102.292,106.65234930419922L102.935,101.62494930419922L113.965,101.62494930419922ZM233.687,105.06204930419922L232.237,116.39934930419922L232.157,116.99494930419922C231.822,119.36014930419921,231.325,121.52144930419922,230.664,123.47874930419923C229.948,125.59914930419922,228.957,127.40324930419922,227.689,128.8909493041992Q225.788,131.12244930419922,222.937,132.35364930419922Q220.086,133.58484930419922,216.033,133.58484930419922L216.683,128.50614930419923L217.068,128.50254930419922Q219.734,128.45144930419923,221.508,127.68534930419922C222.775,127.13814930419922,223.807,126.35154930419921,224.605,125.32554930419923C225.404,124.29954930419922,226.019,123.03414930419922,226.45,121.52934930419923C226.882,120.02454930419921,227.221,118.31454930419922,227.466,116.39934930419922L228.916,105.06204930419922L233.687,105.06204930419922ZM333.174,111.88494930419921L333.824,106.80624930419921L288.115,106.80624930419921L287.466,111.88494930419921L333.174,111.88494930419921ZM375.347,108.24264930419922L348.876,108.24264930419922L347.675,117.63054930419922L374.146,117.63054930419922L375.347,108.24264930419922ZM93.9016,112.09014930419922L94.2625,109.26864930419922L68.4586,109.26864930419922L67.8681,113.88564930419922L87.8751,113.88564930419922C87.6301,115.80084930419922,86.8274,117.66474930419922,85.4669,119.47734930419922C84.1064,121.28994930419921,82.2592,122.89734930419922,79.9253,124.29954930419922C78.1202,123.17094930419921,76.7338,121.77724930419922,75.7661,120.11854930419922C74.8553,118.55744930419922,74.4758,116.92814930419922,74.6276,115.23074930419922L74.6623,114.91164930419922L69.8401,114.91164930419922C69.5776,116.96364930419922,69.8836,119.04984930419923,70.7581,121.17024930419922Q72.0698,124.35084930419922,74.6855,126.76194930419922C73.1151,127.27494930419923,71.4466,127.68534930419922,69.6801,127.99314930419922C68.1099,128.2667493041992,66.4522,128.43224930419922,64.707,128.48964930419922L64.0485,128.50614930419923L63.3988,133.58484930419922Q69.831,133.4309493041992,75.2071,131.50714930419923C78.7911,130.2246493041992,81.9092,128.57454930419922,84.5613,126.55674930419923Q88.5395,123.53004930419922,90.9745,119.73384930419923C92.5076,117.34364930419922,93.4631,114.93814930419921,93.841,112.51744930419922L93.9016,112.09014930419922ZM231.922,123.27354930419922C232.122,124.91514930419922,232.804,126.19764930419922,233.969,127.12104930419922C235.133,128.04444930419922,237.1,128.50614930419923,239.871,128.50614930419923L239.221,133.58484930419922C236.417,133.58484930419922,234.213,133.16594930419922,232.61,132.32804930419923C231.007,131.49014930419924,229.843,130.3016493041992,229.116,128.76264930419921C229.875,127.90764930419923,230.462,127.00134930419921,230.875,126.04374930419922C231.288,125.08614930419921,231.637,124.16274930419922,231.922,123.27354930419922ZM344.358,124.70994930419923L342.274,133.79004930419921L336.066,133.79004930419921L338.1,124.70994930419923L344.358,124.70994930419923ZM381.807,124.70994930419923L381.569,133.79004930419921L375.311,133.79004930419921L375.6,124.70994930419923L381.807,124.70994930419923ZM356.452,124.81254930419922L356.227,133.79004930419921L350.43,133.79004930419921L350.707,124.81254930419922L356.452,124.81254930419922ZM368.969,124.81254930419922L368.693,133.79004930419921L362.794,133.79004930419921L363.07,124.81254930419922L368.969,124.81254930419922ZM85.7597,126.81324930419922C86.2123,127.01844930419921,86.7782,127.20654930419923,87.4574,127.37754930419922C88.1366,127.54854930419921,88.879,127.69394930419922,89.6845,127.81364930419922Q90.8927,127.99314930419922,92.1588,128.12144930419922C93.0029,128.2069493041992,93.7989,128.2667493041992,94.5469,128.3009493041992L93.871,133.58484930419922C90.3572,133.51644930419923,87.511,133.17444930419921,85.3326,132.5588493041992C83.1541,131.9432493041992,81.4075,131.2934493041992,80.0928,130.60944930419922C80.4523,130.47264930419922,80.889,130.2674493041992,81.4028,129.99384930419922C81.9166,129.72024930419923,82.4433,129.4124493041992,82.9829,129.07044930419923C83.5226,128.72844930419922,84.0399,128.36084930419923,84.5348,127.96754930419922C85.0297,127.57424930419921,85.438,127.18944930419923,85.7597,126.81324930419922Z" fill-rule="evenodd" fill="#000000" fill-opacity="1"/></g><g><path d="M23.097892239761354,58.5586Q29.33079223976135,58.5586,33.65569223976135,56.9811C36.538992239761356,55.9295,38.879092239761356,54.5572,40.67579223976135,52.8643C42.47249223976135,51.1714,43.76619223976135,49.2733,44.55659223976135,47.17C45.34709223976135,45.0667,45.72679223976135,42.9378,45.69579223976135,40.7831C45.65439223976135,37.9104,45.120492239761354,35.5762,44.09429223976135,33.7807C43.068092239761356,31.9852,41.73899223976135,30.536,40.10719223976135,29.433C38.47529223976135,28.3301,36.667392239761355,27.4708,34.68349223976135,26.8552C32.69959223976135,26.2396,30.729192239761353,25.6753,28.772392239761352,25.1623C27.228292239761352,24.8032,25.76069223976135,24.4184,24.369692239761353,24.0081Q22.283092239761352,23.3925,20.692292239761354,22.469C19.631792239761353,21.8535,18.787492239761352,21.1096,18.159292239761353,20.2375C17.531092239761353,19.3654,17.207392239761354,18.2624,17.188192239761353,16.9286Q17.148292239761354,14.1585,18.433692239761353,12.581Q19.719092239761352,11.0035,21.476692239761352,10.15705C22.648492239761353,9.59275,23.82319223976135,9.23365,25.000892239761352,9.07975Q26.767392239761353,8.8489,27.767792239761352,8.8489Q33.38509223976135,8.8489,36.18809223976135,11.1189C38.056692239761354,12.6323,39.04139223976135,15.1075,39.14219223976135,18.5446L48.37619223976135,18.5446Q48.46029223976135,13.6968,46.87299223976135,10.34943Q45.28579223976135,7.0021,42.48559223976135,4.92445C40.618792239761355,3.53935,38.424192239761354,2.5389999999999997,35.90159223976135,1.9234Q32.117692239761354,1,27.808492239761353,1Q22.960692239761354,1,19.169992239761353,2.26968Q15.379192239761352,3.53935,12.795692239761353,5.80937Q10.212082239761353,8.0794,8.872462239761353,11.2344Q7.532832239761353,14.3893,7.586082239761352,18.0829Q7.642652239761352,22.0074,9.333682239761352,24.5467Q11.024712239761353,27.0861,13.432892239761353,28.6635C15.038392239761352,29.7152,16.691392239761353,30.5103,18.392092239761354,31.049C20.09279223976135,31.5876,21.56089223976135,32.0109,22.796592239761353,32.3186Q25.34589223976135,33.0112,27.741892239761352,33.7422C29.339192239761353,34.2296,30.745592239761354,34.8195,31.961192239761353,35.5121C33.17669223976135,36.2046,34.16379223976135,37.0639,34.92239223976135,38.0899C35.681092239761355,39.1159,36.071492239761355,40.3984,36.09369223976135,41.9374Q36.12919223976135,44.3998,34.96029223976135,46.0542C34.18099223976135,47.1572,33.20639223976136,48.0549,32.03649223976135,48.7475Q30.28169223976135,49.7863,28.095192239761353,50.248Q25.908792239761354,50.7097,23.985092239761354,50.7097Q17.98299223976135,50.7097,14.482492239761353,48.0934Q10.982032239761352,45.4771,11.197762239761353,39.0902L1.9637611597613525,39.0902Q1.8841818397613526,44.2459,3.3610022397613526,47.9395C4.345552239761353,50.4019,5.759672239761352,52.4154,7.603382239761353,53.9801Q10.368932239761353,56.327,14.309492239761353,57.4428Q18.24999223976135,58.5586,23.097892239761354,58.5586ZM66.02459223976135,32.857299999999995L61.297492239761354,57.2505L51.678692239761354,57.2505L62.352292239761354,2.30815L99.82689223976135,2.30815L98.25379223976135,10.61875L70.32099223976135,10.61875L67.52739223976135,25.0084L91.76659223976135,25.0084L90.18689223976135,32.857299999999995L66.02459223976135,32.857299999999995ZM139.04269223976135,57.2505C142.47969223976136,57.2505,145.41369223976136,57.0709,147.84569223976135,56.7118C150.27769223976136,56.3527,152.43669223976136,55.7884,154.32369223976136,55.0189C156.21069223976136,54.2494,157.91569223976134,53.2875,159.43769223976136,52.1333C160.95969223976135,50.979,162.53069223976135,49.6068,164.14869223976135,48.0165C165.61569223976136,46.5801,166.87469223976134,44.9,167.92369223976135,42.9762C168.97369223976136,41.0525,169.84269223976136,39.0518,170.53069223976135,36.9741C171.21869223976134,34.8965,171.72769223976135,32.8445,172.05769223976137,30.8181C172.38769223976135,28.7918,172.54069223976134,26.9578,172.51769223976135,25.3162Q172.35069223976134,13.7737,166.80469223976135,8.04093Q161.25869223976136,2.30815,150.63969223976136,2.30815L130.47869223976136,2.30815L119.72869223976136,57.2505L139.04269223976135,57.2505ZM138.59469223976134,10.15704L130.92669223976137,49.4015L142.93069223976136,49.4015C145.70069223976137,49.4015,148.11769223976134,48.927,150.18169223976136,47.978C152.24569223976135,47.0289,154.01169223976135,45.8234,155.47769223976135,44.3613C156.94469223976137,42.8993,158.16469223976137,41.2448,159.13869223976135,39.398C160.11269223976134,37.5512,160.88169223976135,35.7429,161.44569223976134,33.9731Q162.29269223976135,31.3183,162.60469223976136,28.9713C162.81369223976137,27.4067,162.91069223976135,26.1626,162.89769223976134,25.2392C162.82769223976135,20.417,161.72269223976136,16.6978,159.58169223976137,14.0815C157.44069223976135,11.4652,154.44669223976135,10.15704,150.59869223976136,10.15704L138.59469223976134,10.15704ZM206.00969223976136,55.1343C202.75769223976135,57.2633,198.71969223976134,58.3278,193.89769223976134,58.3278C191.38369223976136,58.3278,189.05669223976136,57.9302,186.91669223976135,57.135Q183.70569223976136,55.9423,181.36469223976135,53.6723C179.80369223976135,52.1589,178.57269223976135,50.3378,177.66969223976136,48.2088Q176.31569223976135,45.0154,176.25669223976135,40.937C176.21169223976136,37.859,176.65669223976136,34.858,177.58869223976134,31.9339C178.52169223976136,29.0098,179.90669223976136,26.3935,181.74669223976136,24.085Q184.50469223976134,20.6222,188.59169223976136,18.5061Q192.67769223976134,16.39,197.98769223976134,16.39Q203.29669223976134,16.39,206.63069223976134,18.1598C208.85369223976136,19.3397,210.59369223976134,20.8274,211.85069223976134,22.6229C213.10869223976135,24.4184,213.97069223976135,26.3935,214.43769223976136,28.5481C214.90469223976135,30.7027,215.15169223976136,32.7547,215.18069223976136,34.7041C215.19469223976137,35.6788,215.15569223976135,36.5765,215.06569223976135,37.3974C214.97469223976134,38.2181,214.88269223976135,38.962,214.78969223976137,39.6289L185.16369223976136,39.6289C185.11669223976136,39.8854,185.08069223976136,40.1162,185.05869223976134,40.3214C185.03569223976135,40.5266,185.02569223976136,40.7318,185.02869223976134,40.937L185.04669223976134,42.1683C185.08669223976136,44.9384,185.84969223976134,47.17,187.33569223976136,48.8629Q189.56569223976135,51.4022,194.64469223976135,51.4022C197.00469223976134,51.4022,199.02269223976134,50.8636,200.70069223976137,49.7863C202.37769223976136,48.709,203.50869223976136,47.093,204.09269223976136,44.9384L212.86569223976136,44.9384C211.54769223976135,49.6068,209.26269223976135,53.0054,206.00969223976136,55.1343ZM234.80969223976135,58.3278C236.96469223976135,58.3278,239.10269223976135,58.0841,241.22469223976134,57.5967C243.34669223976135,57.1094,245.22069223976135,56.327,246.84669223976135,55.2497C248.47269223976136,54.1725,249.78669223976135,52.813,250.78869223976136,51.1714C251.79169223976135,49.5298,252.27569223976136,47.5547,252.24269223976134,45.2463C252.21969223976134,43.6559,251.94369223976136,42.2965,251.41469223976137,41.1679C250.88469223976136,40.0393,250.19169223976135,39.0646,249.33269223976134,38.2438C248.47469223976134,37.423,247.47769223976135,36.7304,246.34069223976135,36.1661C245.20369223976135,35.6018,244.04169223976135,35.0889,242.85569223976134,34.6272Q240.76669223976134,33.8577,238.68069223976136,33.2805C237.28969223976137,32.8958,236.02769223976136,32.4854,234.89269223976135,32.0493C233.75769223976135,31.6133,232.83969223976135,31.1131,232.13869223976135,30.5488C231.43869223976137,29.9845,231.08169223976137,29.2407,231.06769223976136,28.3172Q231.04669223976134,26.8552,231.61069223976136,25.8933C231.98569223976136,25.2521,232.49169223976136,24.7391,233.12669223976135,24.3543C233.76269223976135,23.9696,234.47769223976135,23.7002,235.26969223976135,23.5463C236.06269223976136,23.3924,236.89569223976136,23.3155,237.76769223976135,23.3155C240.12769223976136,23.3155,242.04469223976136,23.7772,243.52069223976136,24.7006C244.99569223976135,25.624,245.77369223976135,27.086,245.85369223976136,29.0868L254.16469223976137,29.0868C254.17969223976135,26.6243,253.77869223976134,24.5723,252.95969223976135,22.9307C252.14069223976136,21.2892,251.01869223976135,19.981,249.59469223976134,19.0063C248.16969223976136,18.0316,246.50569223976134,17.3519,244.60169223976135,16.967100000000002C242.69769223976135,16.5824,240.66869223976136,16.39,238.51469223976136,16.39C236.46269223976134,16.39,234.46469223976135,16.6208,232.52169223976136,17.0826C230.57969223976136,17.5442,228.84569223976135,18.2624,227.32069223976134,19.2372Q225.03369223976136,20.6992,223.64269223976135,23.0077Q222.25269223976136,25.3162,222.29969223976136,28.5481C222.32069223976134,30.0358,222.56969223976137,31.3183,223.04769223976135,32.3956C223.52469223976135,33.4729,224.17869223976135,34.4091,225.01169223976135,35.2043C225.84369223976134,35.9994,226.78969223976137,36.6791,227.84969223976134,37.2435C228.90969223976134,37.8077,230.03169223976136,38.2951,231.21769223976136,38.7055C232.61069223976136,39.2185,234.04069223976134,39.6802,235.50869223976136,40.0906Q237.71069223976136,40.7062,239.45269223976135,41.4372Q241.19469223976137,42.1683,242.32469223976136,43.1686C243.07769223976135,43.8355,243.46169223976136,44.6819,243.47669223976135,45.7079Q243.50169223976135,47.4008,242.70969223976135,48.5166Q241.91769223976135,49.6324,240.69569223976134,50.248C239.88069223976134,50.6584,238.98669223976134,50.9534,238.01469223976136,51.1329Q236.55669223976136,51.4022,235.17169223976134,51.4022C232.60669223976134,51.4022,230.46969223976134,50.8764,228.76169223976135,49.8248Q226.19969223976136,48.2473,226.29969223976136,44.4767L217.98869223976135,44.4767C218.07969223976136,47.1956,218.57369223976136,49.44,219.47069223976135,51.2099C220.36869223976134,52.9797,221.56869223976136,54.3905,223.07169223976135,55.4421C224.57469223976136,56.4938,226.32969223976136,57.2376,228.33669223976136,57.6737C230.34369223976134,58.1097,232.50069223976135,58.3278,234.80969223976135,58.3278ZM300.7876922397613,72.1018C298.56469223976137,72.7174,295.8886922397613,73.0252,292.75969223976136,73.0252C290.50269223976136,73.0252,288.3576922397614,72.7943,286.32469223976136,72.3326C284.29169223976135,71.8709,282.48569223976136,71.1399,280.90669223976136,70.1396C279.32669223976137,69.1392,278.05169223976134,67.8311,277.0786922397614,66.2151C276.10669223976134,64.5992,275.5786922397614,62.6369,275.49369223976134,60.3284L284.26569223976134,60.3284C284.4006922397613,62.5856,285.33469223976135,64.1759,287.0666922397614,65.0993C288.79869223976135,66.0228,290.92069223976137,66.4845,293.4346922397614,66.4845C295.38469223976136,66.4845,296.99569223976135,66.2023,298.27069223976133,65.638Q300.18169223976133,64.7915,301.43069223976136,63.3295C302.26269223976135,62.3548,302.9006922397613,61.1877,303.34269223976133,59.8283Q304.00569223976134,57.7891,304.50869223976133,55.3267L305.29869223976135,51.4022L305.14269223976135,51.2483C302.4296922397614,55.2497,298.7136922397614,57.2505,293.9946922397614,57.2505Q286.52969223976135,57.2505,282.4656922397613,52.9028Q278.40169223976136,48.5551,278.29169223976135,40.937C278.2496922397614,37.9616,278.6556922397614,34.9991,279.51069223976134,32.0493C280.36569223976136,29.0996,281.63569223976134,26.4704,283.3216922397614,24.1619Q285.84969223976134,20.6992,289.66569223976137,18.5446C292.20969223976135,17.1082,295.14969223976135,16.39,298.48369223976135,16.39C301.40769223976133,16.39,303.93069223976136,16.9799,306.05069223976136,18.1598C308.17069223976137,19.3397,309.78969223976134,21.3148,310.90669223976136,24.085L311.06069223976135,24.085L312.1196922397614,17.4673L320.43069223976136,17.4673L312.6006922397614,56.1731C311.9776922397613,59.1998,311.18069223976136,61.7905,310.21169223976136,63.9451Q308.75769223976135,67.177,306.43969223976137,69.1777C304.89469223976135,70.5115,303.01069223976134,71.4862,300.7876922397613,72.1018ZM331.05869223976134,57.2505L335.21069223976133,35.7044C335.54669223976134,34.0629,336.07569223976134,32.4854,336.7976922397614,30.972C337.51969223976135,29.4587,338.38569223976134,28.189,339.39669223976136,27.163C340.4586922397614,26.0857,341.66369223976136,25.1751,343.01269223976135,24.4313C344.36169223976134,23.6874,345.90769223976133,23.3155,347.65269223976134,23.3155C349.24269223976137,23.3155,350.46469223976135,23.5463,351.31769223976136,24.008C352.17069223976137,24.4697,352.78169223976136,25.0212,353.14969223976135,25.6625C353.51769223976135,26.3037,353.71969223976134,26.945,353.75469223976137,27.5862C353.78969223976134,28.2275,353.80869223976134,28.702,353.81369223976134,29.0098C353.8216922397614,29.5741,353.76569223976134,30.164,353.64669223976136,30.7796Q353.46769223976133,31.703,353.25069223976135,32.7034L348.52669223976136,57.2505L357.29869223976135,57.2505L362.24169223976133,31.8569C362.38569223976134,31.1387,362.47669223976135,30.3179,362.51469223976136,29.3946C362.55269223976137,28.4711,362.56569223976135,27.6503,362.55569223976136,26.9321C362.50869223976133,23.7002,361.5356922397614,21.1353,359.63569223976134,19.2372C357.73669223976134,17.3391,354.7856922397614,16.39,350.78469223976134,16.39C348.0136922397613,16.39,345.44569223976134,17.0056,343.07769223976135,18.2368Q339.5256922397613,20.0836,337.18769223976136,23.3924L337.03169223976136,23.2385L338.1796922397614,17.4673L329.9466922397614,17.4673L322.28669223976135,57.2505L331.05869223976134,57.2505ZM273.51669223976137,17.4673L265.85669223976134,57.2504L257.0836922397614,57.2504L264.74369223976134,17.4673L273.51669223976137,17.4673ZM185.92669223976137,33.8576Q187.16869223976136,29.2406,190.04969223976136,26.2781Q192.93169223976136,23.3155,197.85669223976134,23.3155C200.47269223976136,23.3155,202.53569223976135,24.0722,204.04469223976136,25.5855C205.55469223976135,27.0989,206.32669223976134,29.0354,206.36069223976136,31.3952L206.38669223976135,33.2036C206.38869223976135,33.3831,206.36669223976136,33.6011,206.31869223976136,33.8576L185.92669223976137,33.8576ZM295.51069223976134,50.3249Q293.27869223976137,50.3249,291.69069223976135,49.5554C290.6316922397614,49.0424,289.7616922397614,48.3371,289.08169223976137,47.4393C288.40169223976136,46.5416,287.89969223976135,45.4899,287.57469223976136,44.2844C287.2496922397614,43.0788,287.07669223976137,41.8091,287.05769223976137,40.4753C287.03169223976136,38.6798,287.26069223976134,36.7689,287.7446922397614,34.7426C288.22869223976136,32.7162,288.98369223976135,30.8566,290.0116922397614,29.1637C291.03869223976136,27.4708,292.33969223976135,26.0729,293.91369223976136,24.9699Q296.2756922397613,23.3155,299.50769223976135,23.3155C302.43169223976133,23.3155,304.64969223976135,24.1491,306.1606922397614,25.8164C307.6726922397614,27.4836,308.44969223976136,29.7793,308.49169223976133,32.7034C308.52069223976133,34.7041,308.30669223976133,36.7561,307.84969223976134,38.8594C307.39269223976135,40.9627,306.63769223976135,42.8608,305.58469223976135,44.5537C304.53169223976136,46.2466,303.1796922397614,47.6317,301.52769223976134,48.709C299.87569223976135,49.7863,297.87069223976135,50.3249,295.51069223976134,50.3249Z" fill-rule="evenodd" fill="#000000" fill-opacity="1"/></g><g><path d="M274.802771875,10.618750053024293L276.375821875,2.3081500530243164L267.680521875,2.308150053024292L266.107421875,10.618750053024293L274.802771875,10.618750053024293Z" fill="#E73313" fill-opacity="1"/></g></g></svg>