<?xml version="1.0" encoding="UTF-8"?>
<svg width="120px" height="40px" viewBox="0 0 120 40" version="1.1" xmlns="http://www.w3.org/2000/svg" xmlns:xlink="http://www.w3.org/1999/xlink">
    <title>LOGO</title>
    <defs>
        <polygon id="path-1" points="0 0 14.6745653 0 14.6745653 21.47971 0 21.47971"></polygon>
    </defs>
    <g id="-" stroke="none" stroke-width="1" fill="none" fill-rule="evenodd">
        <g id="LOGO">
            <rect id="矩形" fill="#D8D8D8" opacity="0" x="0" y="0" width="120" height="40"></rect>
            <g id="编组" transform="translate(2.000000, 7.000000)">
                <path d="M83.7588984,5.01252989 C85.0450046,5.01252989 86.085918,3.97161652 86.085918,2.68551022 C86.085918,1.39940393 85.0450046,0.358490564 83.7588984,0.358490564 C82.4725607,0.358490564 81.4316474,1.39940393 81.4316474,2.68551022 C81.4316474,3.97161652 82.4748739,5.01252989 83.7588984,5.01252989" id="Fill-1" fill="#E42E3E"></path>
                <path d="M46.6908168,5.67179815 C45.9436723,4.74422868 44.6552529,4.27928738 42.8255585,4.27928738 L40.8524494,4.27928738 L39.2078062,15.986093 L41.1809153,15.986093 C43.0406806,15.986093 44.4678884,15.5188386 45.462539,14.5820166 C46.4546451,13.6451945 47.0979296,12.1439662 47.3870722,10.0829577 C47.669044,8.07052518 47.4356481,6.59936762 46.6908168,5.67179815 M50.1397097,2.84745321 C51.5021497,4.50597518 51.9578384,6.9440256 51.506776,10.1569782 C51.0534004,13.3884359 49.9176482,15.8218601 48.0995195,17.4549375 C46.2813908,19.0880149 43.7924513,19.9045536 40.6303878,19.9045536 L34.572272,19.9045536 L37.3202833,0.358513695 L43.3783991,0.358513695 C46.5196444,0.360826836 48.7749566,1.18893125 50.1397097,2.84745321" id="Fill-3" fill="#000000"></path>
                <polygon id="Fill-5" fill="#000000" points="21.8546007 4.33010708 21.2531841 8.61173073 27.4015124 8.61173073 26.8440454 12.5833935 20.6957171 12.5833935 19.6663695 19.9067973 15.5813628 19.9067973 18.3293741 0.360757442 29.6984612 0.360757442 29.1409943 4.33242022 21.8546007 4.33242022"></polygon>
                <path d="M115.252172,6.47214487 C115.960224,7.45291658 116.165862,9.00734721 115.867467,11.140063 L114.634563,19.9068667 L110.686263,19.9068667 L111.919167,11.140063 C112.018632,10.4345551 111.937672,9.89790642 111.680914,9.52780389 C111.423924,9.15770136 110.921972,8.97265009 110.181767,8.97265009 C109.305087,8.97265009 108.345365,9.38438916 107.306533,10.2101804 L105.944324,19.9068667 L101.995562,19.9068667 L104.047549,5.31094818 L107.995849,5.31094818 L107.831847,6.47214487 C108.463103,5.97250646 109.08557,5.60471707 109.700634,5.36415042 C110.315929,5.12358378 110.956901,5.00329231 111.623085,5.00329231 C113.332265,5.00098731 114.542269,5.49137317 115.252172,6.47214487" id="Fill-7" fill="#000000"></path>
                <g transform="translate(86.196856, 4.899325)">
                    <mask id="mask-2" fill="white">
                        <use xlink:href="#path-1"></use>
                    </mask>
                    <g id="Clip-10"></g>
                    <path d="M9.39135171,9.90001138 L10.0760414,5.02645499 C9.31270493,4.32071573 8.5007925,3.96911833 7.63799098,3.96911833 C6.76131061,3.96911833 6.05580266,4.26543167 5.52840655,4.85967754 C4.9986973,5.45415473 4.65427064,6.31695626 4.49443261,7.45062657 C4.31400762,8.73881469 4.40190697,9.64787903 4.75813066,10.1708802 C5.1168988,10.6957318 5.74815493,10.9571167 6.65490613,10.9571167 C7.51770765,10.9571167 8.43162959,10.6057506 9.39135171,9.90001138 L9.39135171,9.90001138 Z M14.6745653,0.411507751 L12.6297489,14.9544554 C12.4562633,16.1917544 12.0676556,17.3046064 11.4685522,18.2943994 C10.8671356,19.2823418 10.0783545,20.0618703 9.09758283,20.6285898 C8.11681112,21.195078 6.99956411,21.4798256 5.74584179,21.4798256 C4.51987716,21.4798256 3.44889296,21.4104314 2.53057605,21.2739561 C1.61225915,21.1349363 0.767962751,20.8943697 0,20.5522562 L0.580598345,16.4256129 C1.33005597,16.8026549 2.10033186,17.0776873 2.89373916,17.2511729 C3.68714646,17.4225766 4.4088464,17.5081628 5.05907028,17.5081628 C6.19482242,17.5081628 7.05507949,17.2675962 7.6449304,16.7864629 C8.23478131,16.3050983 8.59331813,15.6090742 8.72077219,14.6974654 L8.88246073,13.5365001 C7.67731437,14.4638382 6.46291544,14.9287795 5.23695081,14.9287795 C3.43732725,14.9287795 2.08899747,14.3227366 1.19381198,13.1108821 C0.296313339,11.8987964 0.0279890039,10.0133553 0.388607657,7.45062657 C0.615526771,5.83605428 1.06173163,4.46898806 1.72560305,3.35150973 C2.38947446,2.23426271 3.20370003,1.39690574 4.16596661,0.837125661 C5.13054633,0.279890039 6.18556986,0 7.33496953,0 C8.56093416,0 9.64348406,0.46470999 10.58979,1.39251077 L10.7283471,0.411507751 L14.6745653,0.411507751 Z" id="Fill-9" fill="#000000" mask="url(#mask-2)"></path>
                </g>
                <path d="M12.2087572,9.44918023 C11.5564515,8.90096586 10.8995195,8.57712615 10.3096686,8.27179156 L9.6457972,7.99884094 C7.53389964,7.0273218 6.41665262,6.54156223 6.59013819,5.30865817 C6.71042151,4.44585665 7.64261726,3.38181187 9.39366485,3.38181187 C11.4338551,3.38181187 12.7245876,4.22842141 13.6058943,4.91079795 L13.8187032,5.08659666 L14.3854227,1.05710535 L14.2605131,0.990024269 C13.1802764,0.499638416 12.0769082,0 9.47231164,0 C4.44816979,0 2.28769627,2.90761801 1.87364406,5.85455941 C1.40638962,9.1808559 3.76810639,10.3836891 5.15830402,11.137773 L5.98640843,11.5495121 C7.71432462,12.3452325 9.03975431,13.0322354 8.83388478,14.4941404 C8.68815691,15.5258012 7.63336469,16.7702709 5.29940561,16.7702709 C2.86829461,16.7702709 1.51279409,15.6645896 0.825791271,15.0354153 L0.610669175,14.8387983 L0,19.1759374 L0.0832730694,19.2175739 C0.363163108,19.3262915 0.633800584,19.4558274 0.922943186,19.5529793 C1.49660211,19.7657883 3.02096191,20.2399821 5.02182871,20.2399821 C5.83605428,20.2399821 7.86699192,20.1590222 9.59259497,19.3771806 C11.9959483,18.2622467 13.2542969,16.1619149 13.5827629,13.8325821 C13.8094507,12.2527069 13.453227,10.5895587 12.2087572,9.44918023" id="Fill-11" fill="#000000"></path>
                <path d="M76.2967523,12.1092922 C75.7367409,11.6906137 75.1746477,11.4431076 74.6706143,11.2094804 L74.1038948,11.0012977 C72.299645,10.2587795 71.346631,9.89099013 71.47848,8.94722868 C71.5707743,8.28798354 72.348221,7.47607112 73.8353392,7.47607112 C75.568113,7.47607112 76.6737943,8.12375055 77.42996,8.64189409 L77.6126982,8.77605626 L78.0454868,5.70189211 L77.9390823,5.65100301 C77.0159078,5.2762742 76.0744595,4.89460597 73.8630969,4.89460597 C69.5978965,4.89460597 67.8005861,7.11290801 67.4834545,9.36359402 C67.1272308,11.9011095 69.1468341,12.8194264 70.3355571,13.3953985 L71.0436095,13.7097543 C72.5217065,14.3181103 73.6526011,14.8411115 73.4955388,15.955814 C73.3845081,16.7425132 72.5052832,17.6932141 70.5231529,17.6932141 C68.4598313,17.6932141 67.2940083,16.8489177 66.7039261,16.3698662 L66.5188748,16.2197434 L66.0541648,19.5298479 L66.1256409,19.5622319 C66.3641257,19.645505 66.5975216,19.7426569 66.8429458,19.8166774 C67.3307872,19.9785972 68.6307724,20.3417603 70.3286177,20.3417603 C71.0202468,20.3417603 72.7414549,20.2793055 74.1987336,19.6825152 C76.2248137,18.8312794 77.2680402,17.2280415 77.5178594,15.4517807 C77.6892631,14.2489474 77.3677365,12.9790331 76.2967523,12.1092922" id="Fill-13" fill="#000000"></path>
                <polygon id="Fill-15" fill="#000000" points="79.2227367 19.9045073 83.1712681 19.9045073 85.0703567 6.39113868 81.1218253 6.39113868"></polygon>
                <path d="M56.9726583,10.5618241 C57.1345782,9.41219311 58.1986229,8.47999736 59.3482539,8.47999736 C60.4978849,8.47999736 61.3005448,9.41219311 61.1386249,10.5618241 L56.9726583,10.5618241 Z M65.295339,12.1578913 C65.6423101,9.69208315 65.3392886,7.81843909 64.3862746,6.5323328 C63.4332606,5.2462265 61.9597899,4.60317336 59.9658625,4.60317336 C58.7213928,4.60317336 57.5532566,4.90850794 56.4614542,5.52149026 C55.3696517,6.13447258 54.4443954,7.03891064 53.6856852,8.23480444 C52.926975,9.43069824 52.4296497,10.8648455 52.1960225,12.5303069 C51.9716479,14.1263741 52.089618,15.3338336 52.4944177,16.53898 C52.8992173,17.7441263 53.6093516,18.6809484 54.6248204,19.3448198 C55.6402892,20.0086912 56.9379612,20.3417835 58.5178364,20.3417835 C59.6512754,20.3417835 60.6389865,20.2400053 61.4809698,20.0364489 C62.322953,19.8328925 63.1950071,19.4743557 64.0994452,18.9585253 L64.097132,18.9446464 L61.714597,16.1735037 C61.6266976,16.2035745 61.534172,16.2336454 61.4508989,16.2590899 C60.861048,16.4277179 60.2550051,16.5112223 59.6327702,16.5112223 C58.5640992,16.5112223 57.7868839,16.2706556 57.3034374,15.7941486 C56.819991,15.3153285 56.6326266,14.8177719 56.4683936,13.9922119 L65.0385803,13.9922119 L65.295339,12.1578913 Z" id="Fill-17" fill="#000000"></path>
            </g>
        </g>
    </g>
</svg>