<?xml version="1.0" encoding="UTF-8"?>
<svg width="570px" height="190px" viewBox="0 0 570 190" version="1.1" xmlns="http://www.w3.org/2000/svg" xmlns:xlink="http://www.w3.org/1999/xlink">
    <title>LOGO1</title>
    <defs>
        <polygon id="path-1" points="0 0 71.6017585 0 71.6017585 104.806171 0 104.806171"></polygon>
    </defs>
    <g id="-" stroke="none" stroke-width="1" fill="none" fill-rule="evenodd">
        <g id="LOGO1">
            <rect id="矩形" fill="#D8D8D8" opacity="0" x="0" y="0" width="570" height="190"></rect>
            <g id="编组" transform="translate(2.000000, 31.000000)">
                <path d="M408.685659,24.4576889 C414.960971,24.4576889 420.03991,19.3787496 420.03991,13.1034378 C420.03991,6.82812608 414.960971,1.74918672 408.685659,1.74918672 C402.409219,1.74918672 397.330279,6.82812608 397.330279,13.1034378 C397.330279,19.3787496 402.420505,24.4576889 408.685659,24.4576889" id="Fill-1" fill="#E42E3E"></path>
                <path d="M227.818985,27.6744634 C224.173435,23.1485641 217.886837,20.8799712 208.95919,20.8799712 L199.331779,20.8799712 L191.307055,78.0011092 L200.934466,78.0011092 C210.008838,78.0011092 216.972628,75.7212297 221.825837,71.1501843 C226.66663,66.5791389 229.805415,59.2541797 231.216231,49.1978797 C232.59206,39.378597 231.453249,32.2003627 227.818985,27.6744634 M244.647204,13.8936079 C251.294972,21.9860513 253.518418,33.8820559 251.317545,49.5590488 C249.105384,65.3263339 243.563697,77.1997654 234.692483,85.168057 C225.821269,93.1363485 213.676961,97.1204943 198.248272,97.1204943 L168.688845,97.1204943 L182.097244,1.74929958 L211.656672,1.74929958 C226.983782,1.76058611 237.988151,5.80116454 244.647204,13.8936079" id="Fill-3" fill="#000000"></path>
                <polygon id="Fill-5" fill="#000000" points="106.635379 21.1279363 103.700881 42.0193069 133.700483 42.0193069 130.980429 61.3982822 100.980827 61.3982822 95.9583201 97.1314422 76.0263047 97.1314422 89.4347046 1.76024752 144.908009 1.76024752 142.187955 21.1392228 106.635379 21.1392228"></polygon>
                <path d="M562.351114,31.5796034 C565.805921,36.365093 566.809294,43.9496424 565.353332,54.3558248 L559.33761,97.1317808 L540.072629,97.1317808 L546.08835,54.3558248 C546.573671,50.9134326 546.178642,48.2949572 544.925837,46.4891121 C543.671904,44.683267 541.222726,43.7803444 537.611036,43.7803444 C533.33344,43.7803444 528.650658,45.7893471 523.581877,49.818639 L516.935238,97.1317808 L497.668,97.1317808 L507.680282,25.9137644 L526.945263,25.9137644 L526.145048,31.5796034 C529.225143,29.1417125 532.262349,27.347154 535.263437,26.1733546 C538.265655,24.9995553 541.393153,24.4126159 544.643674,24.4126159 C552.983293,24.4013691 558.887277,26.7941139 562.351114,31.5796034" id="Fill-7" fill="#000000"></path>
                <g transform="translate(420.581212, 23.905326)">
                    <mask id="mask-2" fill="white">
                        <use xlink:href="#path-1"></use>
                    </mask>
                    <g id="Clip-10"></g>
                    <path d="M45.8233196,48.3052279 L49.164133,24.5256338 C45.4395775,21.082113 41.4780048,19.3665601 37.2681284,19.3665601 C32.9905328,19.3665601 29.5481406,20.8123648 26.9748113,23.7118749 C24.3901955,26.6125136 22.7096309,30.82239 21.9297315,36.3539193 C21.049382,42.6393889 21.4782702,47.074996 23.2163961,49.6268808 C24.9669372,52.1877949 28.0470318,53.463173 32.4713523,53.463173 C36.6812287,53.463173 41.1405375,51.7487488 45.8233196,48.3052279 L45.8233196,48.3052279 Z M71.6017585,2.00787403 L61.6244642,72.9674288 C60.7779744,79.0045947 58.881837,84.4345452 55.9586252,89.2640523 C53.0241269,94.08453 49.1754195,97.8880913 44.38993,100.653292 C39.6044405,103.417363 34.1530456,104.806735 28.0357453,104.806735 C22.0538834,104.806735 16.8282191,104.468139 12.3474659,103.802234 C7.86671274,103.123913 3.7471286,101.950114 0,100.280836 L2.83291951,80.1456631 C6.48975585,81.9853678 10.248171,83.3273365 14.1194514,84.1738264 C17.9907319,85.0101584 21.5121298,85.4277601 24.6847739,85.4277601 C30.2264611,85.4277601 34.4239223,84.2539607 37.301988,81.9063621 C40.1800536,79.5576348 41.9294661,76.1615174 42.551354,71.7134951 L43.3402825,66.0487848 C37.4599994,70.5735554 31.5345702,72.8421483 25.5527083,72.8421483 C16.7717864,72.8421483 10.192867,69.885077 5.82497912,63.9720629 C1.44580474,58.0579202 0.136567036,48.858268 1.89613736,36.3539193 C3.00334614,28.47592 5.18051815,21.8055797 8.41975281,16.3530561 C11.6589875,10.9016612 15.6318467,6.81593662 20.327044,4.0845959 C25.0335278,1.36567036 30.181315,0 35.7895927,0 C41.7714546,0 47.0535515,2.26746426 51.6708718,6.79449221 L52.346935,2.00787403 L71.6017585,2.00787403 Z" id="Fill-9" fill="#000000" mask="url(#mask-2)"></path>
                </g>
                <path d="M59.5703154,46.1054829 C56.3875134,43.4305748 53.1821384,41.8504603 50.3040727,40.3606381 L47.0648381,39.0288274 C36.7602344,34.288484 31.3088395,31.9183123 32.1553294,25.9025907 C32.7422291,21.6927143 37.2907014,16.5009097 45.8346061,16.5009097 C55.7893273,16.5009097 62.0872121,20.6317803 66.3873807,23.9613073 L67.4257417,24.8190837 L70.190942,5.15794508 L69.5814692,4.83063566 C64.3106588,2.43789089 58.9269831,0 46.2183482,0 C21.7040009,0 11.1623801,14.1871706 9.14209085,28.5662123 C6.8622114,44.7962452 18.3857605,50.6652418 25.1689662,54.3446512 L29.2095446,56.3536538 C37.6405839,60.2362208 44.1077667,63.5883208 43.1032654,70.721409 C42.3922139,75.7552022 37.2455553,81.8273564 25.8574446,81.8273564 C13.9952996,81.8273564 7.38139187,76.4323941 4.02929189,73.3624574 L2.97964443,72.4031022 L0,93.5653496 L0.406315149,93.7685071 C1.77198551,94.2989741 3.09250974,94.9310199 4.50332623,95.4050543 C7.30238615,96.4434152 14.7402107,98.7571542 24.5030608,98.7571542 C28.47592,98.7571542 38.385495,98.3621256 46.8052478,94.5472778 C58.5319545,89.1071695 64.6718279,78.8589985 66.2745154,67.4934608 C67.3805955,59.7847595 65.6424696,51.6697431 59.5703154,46.1054829" id="Fill-11" fill="#000000"></path>
                <path d="M372.275533,59.0849946 C369.543064,57.0421323 366.800436,55.8344734 364.341101,54.6945337 L361.575901,53.6787458 C352.772406,50.055769 348.122355,48.2612105 348.765687,43.6563054 C349.21602,40.4396438 353.009423,36.4780711 360.265534,36.4780711 C368.720275,36.4780711 374.115238,39.6383001 377.804805,42.1664832 L378.696441,42.8211021 L380.808151,27.8213012 L380.288971,27.5729975 C375.784516,25.7445793 371.190897,23.8823015 360.400973,23.8823015 C339.589737,23.8823015 330.820101,34.7060856 329.272718,45.6878812 C327.534592,58.0692067 337.388863,62.5499599 343.189012,65.3603063 L346.643819,66.894146 C353.855913,69.8625039 359.373898,72.4143888 358.607543,77.8533685 C358.065789,81.691918 353.775779,86.3306826 344.104349,86.3306826 C334.036763,86.3306826 328.348351,82.2110985 325.469156,79.8736577 L324.566234,79.1411618 L322.29877,95.2921889 L322.647523,95.4502004 C323.811165,95.8565155 324.949976,96.3305499 326.147477,96.6917189 C328.527807,97.4817761 334.870838,99.2537617 343.155152,99.2537617 C346.529825,99.2537617 354.928133,98.9490253 362.038649,96.0371001 C371.924522,91.8836563 377.014748,84.060961 378.233693,75.3940332 C379.070025,69.5250366 377.501197,63.3287306 372.275533,59.0849946" id="Fill-13" fill="#000000"></path>
                <polygon id="Fill-15" fill="#000000" points="386.552319 97.1202685 405.818429 97.1202685 415.084671 31.1843491 395.818561 31.1843491"></polygon>
                <path d="M277.987281,51.5344176 C278.777338,45.9250112 283.969143,41.3765389 289.578549,41.3765389 C295.187956,41.3765389 299.104382,45.9250112 298.314325,51.5344176 L277.987281,51.5344176 Z M318.596223,59.3221246 C320.289203,47.2906816 318.810667,38.1485907 314.160616,31.873279 C309.510565,25.5979672 302.321044,22.4603114 292.592053,22.4603114 C286.519899,22.4603114 280.820201,23.9501336 275.492957,26.9410645 C270.165714,29.9319955 265.651102,34.3450295 261.949119,40.1801665 C258.247137,46.0153035 255.820532,53.0129533 254.680593,61.1392562 C253.585799,68.9269633 254.161412,74.8185329 256.136555,80.698816 C258.111698,86.5790992 261.576664,91.1501446 266.531451,94.3893793 C271.486239,97.6286139 277.817983,99.2538745 285.526684,99.2538745 C291.057085,99.2538745 295.876434,98.7572671 299.984732,97.7640523 C304.093029,96.7708375 308.348052,95.021425 312.761086,92.5045284 L312.749799,92.4368092 L301.124671,78.915544 C300.695783,79.0622689 300.244322,79.2089938 299.838007,79.3331457 C296.959941,80.1559339 294.00287,80.5633777 290.966793,80.5633777 C285.752415,80.5633777 281.96014,79.3895783 279.601255,77.0645528 C277.24237,74.7282407 276.328161,72.3005077 275.526817,68.2723444 L317.343418,68.2723444 L318.596223,59.3221246 Z" id="Fill-17" fill="#000000"></path>
            </g>
        </g>
    </g>
</svg>