<svg xmlns="http://www.w3.org/2000/svg" xmlns:xlink="http://www.w3.org/1999/xlink" fill="none" version="1.1" width="120" height="40" viewBox="0 0 120 40"><defs><mask id="master_svg0_36_1706"><g><path d="M88.19685363769531,11.899324893951416L102.87145363769531,11.899324893951416L102.87145363769531,33.37902489395142L88.19685363769531,33.37902489395142L88.19685363769531,11.899324893951416Z" fill-rule="evenodd" fill="#FFFFFF" fill-opacity="1"/></g></mask></defs><g><g style="opacity:0;"><rect x="0" y="0" width="120" height="40" rx="0" fill="#D8D8D8" fill-opacity="1"/></g><g><g><path d="M85.75889825439454,12.0125305564785C87.04500825439453,12.0125305564785,88.08591825439453,10.9716205564785,88.08591825439453,9.685510556478501C88.08591825439453,8.3994005564785,87.04500825439453,7.3584905564785,85.75889825439454,7.3584905564785C84.47255825439453,7.3584905564785,83.43164825439453,8.3994005564785,83.43164825439453,9.685510556478501C83.43164825439453,10.9716205564785,84.47487825439453,12.0125305564785,85.75889825439454,12.0125305564785L85.75889825439454,12.0125305564785Z" fill="#E73313" fill-opacity="1"/></g><g><path d="M53.50677325439453,17.156973683080672C53.95787325439453,13.944023683080673,53.502173254394535,11.505973683080672,52.13967325439453,9.847453683080673C50.77497325439453,8.188931683080673,48.51967325439453,7.360826823080673,45.37840325439453,7.358513683080673L39.32028325439453,7.358513683080673L36.57227325439453,26.904513683080673L42.630393254394534,26.904513683080673C45.79245325439453,26.904513683080673,48.28137325439453,26.088013683080675,50.09947325439453,24.454913683080672C51.91767325439453,22.821813683080673,53.05337325439453,20.38841368308067,53.50677325439453,17.156973683080672ZM44.82552325439453,11.279283683080674C46.65517325439453,11.279283683080674,47.94367325439453,11.744233683080672,48.69077325439453,12.671803683080674C49.435573254394534,13.599363683080673,49.66897325439453,15.070523683080673,49.38707325439453,17.08296368308067C49.09787325439453,19.144013683080672,48.45457325439453,20.645213683080673,47.46247325439453,21.582013683080675C46.467853254394534,22.518813683080673,45.04064325439453,22.986113683080674,43.18088325439453,22.986113683080674L41.20777325439453,22.986113683080674L42.852413254394534,11.279283683080674L44.82552325439453,11.279283683080674Z" fill-rule="evenodd" fill="#FFFFFF" fill-opacity="1"/></g><g><path d="M23.8546027243042,11.330107440328598L23.2531827243042,15.611727440328599L29.4014627243042,15.611727440328599L28.8440627243042,19.583357440328598L22.6957127243042,19.583357440328598L21.6663727243042,26.906757440328597L17.5813627243042,26.906757440328597L20.3293727243042,7.360757440328598L31.6984627243042,7.360757440328598L31.1409627243042,11.332417440328598L23.8546027243042,11.332417440328598L23.8546027243042,11.330107440328598Z" fill="#FFFFFF" fill-opacity="1"/></g><g><path d="M117.25215969238282,13.472144454345703C117.9602596923828,14.452914454345702,118.16585969238281,16.007344454345702,117.86745969238281,18.140064454345705L116.63455969238281,26.906884454345704L112.6862596923828,26.906884454345704L113.9191596923828,18.140064454345705C114.01865969238281,17.4345544543457,113.93766969238281,16.897904454345703,113.68090969238281,16.527804454345702C113.42391969238281,16.157704454345705,112.92196969238282,15.972654454345703,112.18175969238281,15.972654454345703C111.30508969238281,15.972654454345703,110.34535969238281,16.384384454345703,109.30652969238281,17.210184454345704L107.9443196923828,26.906884454345704L103.99555969238281,26.906884454345704L106.04754969238282,12.310948454345704L109.99584969238282,12.310948454345704L109.83184969238282,13.472144454345703C110.46309969238281,12.972506454345703,111.08556969238282,12.604717454345703,111.70062969238282,12.364150454345703C112.31592969238281,12.123584454345703,112.95689969238282,12.003292542145703,113.62307969238282,12.003292542145703C115.33225969238282,12.000987544345703,116.54225969238281,12.491373454345704,117.25215969238282,13.472144454345703L117.25215969238282,13.472144454345703Z" fill="#FFFFFF" fill-opacity="1"/></g><g><g mask="url(#master_svg0_36_1706)"><g><path d="M88.19685363769531,11.899324893951416L102.87145363769531,11.899324893951416L102.87145363769531,33.37902489395142L88.19685363769531,33.37902489395142L88.19685363769531,11.899324893951416Z" fill-rule="evenodd" fill="#D8D8D8" fill-opacity="0.009999999776482582"/></g><g><path d="M100.82655363769531,26.853824893951415L102.87145363769531,12.310832893951416L98.92515363769532,12.310832893951416L98.78665363769531,13.291834893951416C97.84033363769531,12.364034893951416,96.75778363769531,11.899324893951416,95.53182363769531,11.899324893951416C94.38242363769531,11.899324893951416,93.32740363769531,12.179214893951416,92.36282363769531,12.736450893951416C91.40055363769531,13.296234893951416,90.58632363769532,14.133584893951415,89.92245363769531,15.250834893951417C89.25858363769531,16.368314893951414,88.81238063769531,17.735374893951416,88.58546163769532,19.349954893951416C88.22484263769532,21.912724893951417,88.49316663769531,23.798124893951417,89.39066363769531,25.010224893951417C90.28585363769531,26.222024893951414,91.63418363769532,26.82812489395142,93.43380363769532,26.82812489395142C94.65977363769531,26.82812489395142,95.87416363769532,26.363124893951415,97.07931363769531,25.435824893951416L96.91762363769531,26.596824893951414C96.79017363769532,27.508424893951414,96.43163363769531,28.204424893951415,95.84178363769531,28.685824893951416C95.25193363769532,29.166924893951418,94.3916736376953,29.407524893951415,93.25592363769532,29.407524893951415C92.60570363769531,29.407524893951415,91.88400363769532,29.321924893951415,91.0905936376953,29.150524893951417C90.29718363769531,28.977024893951416,89.52691363769532,28.702024893951418,88.77745163769531,28.324924893951415L88.19685363769531,32.45162489395142C88.96481663769531,32.79372489395142,89.80911363769532,33.03422489395142,90.72743363769531,33.17332489395142C91.64574363769532,33.30972489395141,92.71673363769531,33.37912489395141,93.94269363769531,33.37912489395141C95.19641363769531,33.37912489395141,96.31366363769531,33.09442489395141,97.2944336376953,32.527924893951415C98.27525363769531,31.961224893951417,99.0639536376953,31.181624893951415,99.66545363769531,30.193724893951416C100.26455363769531,29.203924893951417,100.65315363769531,28.091124893951417,100.82655363769531,26.853824893951415ZM98.27275363769532,16.925774893951417L97.58808363769532,21.799334893951418C96.62836363769532,22.505124893951418,95.71444363769531,22.856424893951417,94.85163363769531,22.856424893951417C93.94488363769531,22.856424893951417,93.31363363769532,22.595024893951418,92.95486363769531,22.070224893951416C92.59863363769531,21.547204893951417,92.51074363769531,20.638134893951417,92.69116363769531,19.349954893951416C92.85100363769531,18.216284893951418,93.19543363769532,17.353474893951415,93.72513363769531,16.759004893951417C94.25253363769531,16.164754893951418,94.95804363769531,15.868444893951416,95.83472363769532,15.868444893951416C96.69752363769531,15.868444893951416,97.50943363769531,16.220044893951417,98.27275363769532,16.925774893951417Z" fill-rule="evenodd" fill="#FFFFFF" fill-opacity="1"/></g></g></g><g><path d="M14.2088,16.44918C13.5565,15.90097,12.8995,15.57713,12.3097,15.27179L11.6458,14.998840000000001C9.5339,14.02732,8.41665,13.54156,8.59014,12.30866C8.71042,11.44586,9.64262,10.38181,11.39367,10.38181C13.4339,10.38181,14.7246,11.22842,15.6059,11.9108L15.8187,12.0866L16.3854,8.05711L16.2605,7.990024C15.1803,7.499638,14.0769,7,11.47231,7C6.44817,7,4.2877,9.90762,3.87364,12.85456C3.40639,16.18086,5.76811,17.383699999999997,7.1583,18.1378L7.98641,18.549500000000002C9.71432,19.3452,11.03975,20.0322,10.83389,21.4941C10.68816,22.5258,9.63336,23.7703,7.29941,23.7703C4.86829,23.7703,3.51279,22.6646,2.825791,22.0354L2.610669,21.8388L2,26.1759L2.0832731,26.2176C2.363163,26.3263,2.633801,26.4558,2.922943,26.553C3.4966,26.7658,5.0209600000000005,27.24,7.02183,27.24C7.83605,27.24,9.866990000000001,27.159,11.5926,26.3772C13.9959,25.2622,15.2543,23.1619,15.5828,20.8326C15.8095,19.2527,15.4532,17.5896,14.2088,16.44918L14.2088,16.44918Z" fill="#FFFFFF" fill-opacity="1"/></g><g><path d="M78.29676107177734,19.10929611343384C77.73674107177735,18.690616113433837,77.17464107177734,18.44310611343384,76.67061107177734,18.209476113433837L76.10389107177734,18.00129611343384C74.29964107177734,17.25877611343384,73.34663107177734,16.89098611343384,73.47847107177735,15.947226113433839C73.57077107177734,15.287986113433838,74.34822107177735,14.476076113433837,75.83533107177735,14.476076113433837C77.56811107177734,14.476076113433837,78.67376107177735,15.123746113433839,79.42996107177734,15.641896113433837L79.61266107177734,15.776056113433839L80.04546107177734,12.701892113433837L79.93906107177735,12.651003113433838C79.01586107177735,12.276274113433837,78.07446107177735,11.894606113433838,75.86309107177735,11.894606113433838C71.59789107177734,11.894606113433838,69.80058107177734,14.112906113433837,69.48345107177734,16.363596113433836C69.12723107177735,18.901106113433837,71.14683107177734,19.81942611343384,72.33555107177735,20.39539611343384L73.04360107177735,20.709756113433837C74.52170107177734,21.31810611343384,75.65260107177734,21.841116113433838,75.49553107177735,22.955806113433837C75.38450107177735,23.742506113433837,74.50528107177735,24.69320611343384,72.52315107177735,24.69320611343384C70.45983107177734,24.69320611343384,69.29400107177734,23.848906113433838,68.70392207177734,23.36990611343384L68.51887107177734,23.219706113433837L68.05416107177734,26.529806113433835L68.12563717177734,26.562206113433838C68.36412207177735,26.64550611343384,68.59751807177734,26.74270611343384,68.84294207177734,26.81670611343384C69.33078107177734,26.978606113433838,70.63077107177735,27.34180611343384,72.32861107177735,27.34180611343384C73.02024107177735,27.34180611343384,74.74145107177735,27.27930611343384,76.19873107177735,26.68250611343384C78.22476107177735,25.83130611343384,79.26806107177734,24.228006113433835,79.51786107177735,22.45180611343384C79.68926107177734,21.24894611343384,79.36776107177734,19.979036113433835,78.29676107177734,19.10929611343384L78.29676107177734,19.10929611343384Z" fill="#FFFFFF" fill-opacity="1"/></g><g><path d="M81.22274017333984,26.904538553619386L85.17127017333985,26.904538553619386L87.07036017333985,13.391138553619385L83.12183017333984,13.391138553619385L81.22274017333984,26.904538553619386Z" fill="#FFFFFF" fill-opacity="1"/></g><g><path d="M66.38629445800781,13.53233325592041C67.33929445800781,14.81844325592041,67.64229445800781,16.69208325592041,67.29529445800782,19.15789325592041L67.03859445800781,20.99221325592041L58.468394458007815,20.99221325592041C58.63262445800781,21.81777325592041,58.81999445800781,22.31537325592041,59.303434458007814,22.794173255920413C59.78688445800781,23.27067325592041,60.564094458007816,23.51117325592041,61.632774458007816,23.51117325592041C62.25500445800781,23.51117325592041,62.86104445800781,23.42767325592041,63.45089445800781,23.259073255920413C63.53417445800781,23.233673255920408,63.62669445800781,23.20357325592041,63.71459445800781,23.17347325592041L66.09709445800782,25.94467325592041L66.09949445800781,25.95857325592041C65.19499445800781,26.474373255920412,64.32299445800781,26.83287325592041,63.480974458007815,27.03647325592041C62.63898445800781,27.23997325592041,61.65127445800781,27.34177325592041,60.51783445800781,27.34177325592041C58.93796445800781,27.34177325592041,57.64028445800781,27.00867325592041,56.624824458007815,26.34477325592041C55.609354458007815,25.68097325592041,54.89921745800781,24.74417325592041,54.49441745800781,23.53897325592041C54.08961816800781,22.33387325592041,53.97164845800781,21.12637325592041,54.19602245800781,19.53030325592041C54.429649458007816,17.86484325592041,54.92697545800781,16.43069325592041,55.68568445800781,15.23480325592041Q56.82375445800781,13.44096325592041,58.461454458007815,12.52149025592041C59.553254458007814,11.90850825592041,60.721394458007815,11.60317325592041,61.965864458007815,11.60317325592041Q64.9567944580078,11.60317322611811,66.38629445800781,13.53233325592041ZM61.348204458007814,15.47999325592041C60.19857445800781,15.47999325592041,59.13453445800781,16.41219325592041,58.97261445800781,17.56182325592041L63.13857445800781,17.56182325592041C63.30049445800781,16.41219325592041,62.497834458007816,15.47999325592041,61.348204458007814,15.47999325592041Z" fill-rule="evenodd" fill="#FFFFFF" fill-opacity="1"/></g></g></g></svg>