<?xml version="1.0" encoding="utf-8"?>
<!-- Generator: Adobe Illustrator 26.3.1, SVG Export Plug-In . SVG Version: 6.00 Build 0)  -->
<svg version="1.1" id="图层_1" xmlns="http://www.w3.org/2000/svg" xmlns:xlink="http://www.w3.org/1999/xlink" x="0px" y="0px"
	 viewBox="0 0 16 16" style="enable-background:new 0 0 16 16;" xml:space="preserve">

<path class="st0" d="M8,2.5C5,2.5,2.5,5,2.5,8S5,13.5,8,13.5S13.5,11,13.5,8S11,2.5,8,2.5z M8,12.5c-2.5,0-4.5-2-4.5-4.5
	s2-4.5,4.5-4.5s4.5,2,4.5,4.5S10.5,12.5,8,12.5z M7.5,5.9c0-0.3,0.2-0.5,0.5-0.5s0.5,0.2,0.5,0.5c0,0.3-0.2,0.5-0.5,0.5
	S7.5,6.2,7.5,5.9z M8.5,7.7v2.4c0,0.3-0.2,0.5-0.5,0.5s-0.5-0.2-0.5-0.5V7.7c0-0.3,0.2-0.5,0.5-0.5S8.5,7.4,8.5,7.7z"/>
</svg>
